<svg width="100" height="100" xmlns="http://www.w3.org/2000/svg">

 <g>
  <title>background</title>
  <rect fill="none" id="canvas_background" height="102" width="102" y="-1" x="-1"/>
 </g>
 <g>
  <title>Layer 1</title>
  <g stroke="null" id="svg_8">
   <ellipse stroke="null" ry="33.31738" rx="33.31738" id="svg_7" cy="49.39983" cx="48.7015" stroke-width="null" fill="#ffffff"/>
   <path stroke="null" id="svg_2" d="m86.56559,22.11004s-1.18172,-3.54516 -3.54599,-5.90859s-5.90859,-3.54599 -5.90859,-3.54599l-7.51152,7.51152c-4.00899,-2.74119 -8.5988,-4.68509 -13.54297,-5.61943l0,-10.66221s-3.34291,-1.67146 -6.68582,-1.67146s-6.68582,1.67146 -6.68582,1.67146l0,10.66221c-16.62931,3.14401 -29.25046,17.77258 -29.25046,35.3028c0,19.8151 16.12118,35.93629 35.93629,35.93629s35.93629,-16.12118 35.93629,-35.93629c0,-7.49731 -2.31079,-14.46227 -6.25291,-20.22879l7.51152,-7.51152zm-37.19489,58.66223c-17.05051,0 -30.92192,-13.87141 -30.92192,-30.92192s13.87141,-30.92192 30.92192,-30.92192s30.92192,13.87141 30.92192,30.92192s-13.87141,30.92192 -30.92192,30.92192z"/>
  </g>
  <g id="svg_9">
   <path id="svg_1" d="m31,32.99952c-1.656,0 -3,1.343 -3,3l0,28c0,1.657 1.344,3 3,3s3,-1.343 3,-3l0,-28c0,-1.657 -1.344,-3 -3,-3z"/>
   <path stroke="null" id="svg_3" d="m43,32.99952c-1.656,0 -3,1.343 -3,3l0,28c0,1.657 1.344,3 3,3s3,-1.343 3,-3l0,-28c0,-1.657 -1.344,-3 -3,-3z"/>
   <path id="svg_4" d="m55,32.99952c-1.656,0 -3,1.343 -3,3l0,28c0,1.657 1.344,3 3,3s3,-1.343 3,-3l0,-28c0,-1.657 -1.344,-3 -3,-3z"/>
   <path id="svg_5" d="m67,32.99952c-1.656,0 -3,1.343 -3,3l0,28c0,1.657 1.344,3 3,3s3,-1.343 3,-3l0,-28c0,-1.657 -1.344,-3 -3,-3z"/>
   <path stroke="null" transform="rotate(75 49.16169738769531,50.06837844848633) " id="svg_6" d="m49.1617,21.22194c-1.656,0 -3,2.27887 -3,5.09055l0,47.51176c0,2.81168 1.344,5.09055 3,5.09055s3,-2.27887 3,-5.09055l0,-47.51176c0,-2.81168 -1.344,-5.09055 -3,-5.09055z"/>
  </g>
 </g>
</svg>