<svg width="87.506" height="100" xmlns="http://www.w3.org/2000/svg">

 <g>
  <title>background</title>
  <rect fill="none" id="canvas_background" height="102" width="89.506" y="-1" x="-1"/>
 </g>
 <g>
  <title>Layer 1</title>
  <ellipse ry="41" rx="41" id="svg_7" cy="57.45313" cx="43.25299" stroke-width="null" fill="#ffffff"/>
  <path id="svg_1" d="m25,40c-1.656,0 -3,1.343 -3,3l0,28c0,1.657 1.344,3 3,3s3,-1.343 3,-3l0,-28c0,-1.657 -1.344,-3 -3,-3z"/>
  <path id="svg_2" d="m87.506,23.807s-1.414,-4.242 -4.243,-7.07s-7.07,-4.243 -7.07,-4.243l-8.988,8.988c-4.797,-3.28 -10.289,-5.606 -16.205,-6.724l0,-12.758s-4,-2 -8,-2s-8,2 -8,2l0,12.758c-19.898,3.762 -35,21.266 -35,42.242c0,23.71 19.29,43 43,43s43,-19.29 43,-43c0,-8.971 -2.765,-17.305 -7.482,-24.205l8.988,-8.988zm-44.506,70.193c-20.402,0 -37,-16.598 -37,-37s16.598,-37 37,-37s37,16.598 37,37s-16.598,37 -37,37z"/>
  <path stroke="null" style="vector-effect: non-scaling-stroke;" id="svg_3" d="m37,40c-1.656,0 -3,1.343 -3,3l0,28c0,1.657 1.344,3 3,3s3,-1.343 3,-3l0,-28c0,-1.657 -1.344,-3 -3,-3z"/>
  <path id="svg_4" d="m49,40c-1.656,0 -3,1.343 -3,3l0,28c0,1.657 1.344,3 3,3s3,-1.343 3,-3l0,-28c0,-1.657 -1.344,-3 -3,-3z"/>
  <path id="svg_5" d="m61,40c-1.656,0 -3,1.343 -3,3l0,28c0,1.657 1.344,3 3,3s3,-1.343 3,-3l0,-28c0,-1.657 -1.344,-3 -3,-3z"/>
  <path stroke="null" transform="rotate(75 45.1126594543457,57.88584136962891) " id="svg_6" d="m44.22868,31.43835c-1.656,0 -3,2.20256 -3,4.92009l0,45.92083c0,2.71753 1.344,4.92009 3,4.92009s3,-2.20256 3,-4.92009l0,-45.92083c0,-2.71753 -1.344,-4.92009 -3,-4.92009z"/>
 </g>
</svg>